<mxfile host="app.diagrams.net" agent="Mozilla/5.0 (Windows NT 10.0; Win64; x64) AppleWebKit/537.36 (KHTML, like Gecko) Chrome/131.0.0.0 Safari/537.36" version="26.0.4">
  <diagram name="Page-1" id="DOMvboL486q3CZuv-fte">
    <mxGraphModel dx="794" dy="1627" grid="1" gridSize="10" guides="1" tooltips="1" connect="1" arrows="1" fold="1" page="1" pageScale="1" pageWidth="827" pageHeight="1169" math="0" shadow="0">
      <root>
        <mxCell id="0" />
        <mxCell id="1" parent="0" />
        <mxCell id="pClB5-D59-rAymtdk9Vt-3" value="" style="edgeStyle=orthogonalEdgeStyle;rounded=0;orthogonalLoop=1;jettySize=auto;html=1;" edge="1" parent="1" source="d8UQ8FAzlftPKKnkRbnU-1" target="pClB5-D59-rAymtdk9Vt-2">
          <mxGeometry relative="1" as="geometry" />
        </mxCell>
        <mxCell id="d8UQ8FAzlftPKKnkRbnU-1" value="" style="rounded=0;whiteSpace=wrap;html=1;" parent="1" vertex="1">
          <mxGeometry x="260" y="100" width="160" height="80" as="geometry" />
        </mxCell>
        <mxCell id="pClB5-D59-rAymtdk9Vt-1" value="" style="ellipse;whiteSpace=wrap;html=1;" vertex="1" parent="1">
          <mxGeometry x="260" y="300" width="120" height="80" as="geometry" />
        </mxCell>
        <mxCell id="pClB5-D59-rAymtdk9Vt-2" value="" style="ellipse;whiteSpace=wrap;html=1;rounded=0;" vertex="1" parent="1">
          <mxGeometry x="510" y="230" width="80" height="80" as="geometry" />
        </mxCell>
        <mxCell id="y4_PNZh14Dq9iJrezV1P-2" value="" style="shape=stencil(7VjLbttADPwaXYkluc9zmv5HgDi1UTcOHPf196WqSvVS1gQ9tuhNlocrkkMOKQ1697p/eNkNEl4v59PH3dfD42U/6LtB5PC8350PF7sa9H7Qu6fTeffhfPr8/Dj9fnkYkePVp9OX8YRvk12myqORhO/TDU6U9eed9xP+eHi+wgs17fFMUrbxgTR2+Eo5I3gIHdz8A6czaQ9PxLINj8S1gyulsA2vFFMHF2IGzijV/nimALyxYLk/P8zh3MZbLprDB4BXpcIOz4DaGEjE4XMF+EwhungziDcFquLy+Sug2/jo2Y0Ugf8pk2RXPBy38VlnOhf/KzXgUAkzn0v9CGSsVCo9Y7FQTqDisi85c1JAvzSm0rtUMmywFqn0RVoLrKK25GQxaBRBllqj1pdFExL0hEKpj8GcrIA4C9q5ZEcwSqt61bKokK6UlVJYVMglo6lkb9BQsZpB8QYMiIuJJPmgE+BBGwWXpUQR6UW6QVwFgqd5VtvFIMzP3HIp9wZ14X5TYly1JlKsGW6ejdyDoHOc/74yEOBSMR6aN4ggS9We4FwyHQPFZ1kvfbXWjEWgeOJqhUrMYTVnracENbUd6IpJoVZaC7MrpgzV22KszqCSgvFTrHRcQ1h5ASJyIXHzKuAJahOlrWQggUeYvNfsg2CQJpu5VX2a3jJY5RUZSJmVbpkQ5hJaM4xYN4Nsq0JLWPZ7Twpw8Vl4XcZohE0tXlvHxQSc/3/n/Kd3Tvf+8VftnKlQdBNwXuBu49s845d4Fa4JZuC6l20kgt0oVd9d1s9I4yxkt1fY2hxQzOKHODdS0GFxJbtWFWhzieyfMLYBWkSiX5vHtkYSVOe33CsDAYU69m3wMRSsop7pBkuVZdUKy5DekBbXmlzmlfL2vPzDTwNv4+3i93eIp8PxOH3GuP7ff7ewW9M3D73/AQ==);lineShape=1;strokeColor=default;" vertex="1" parent="1">
          <mxGeometry x="437.7498426441706" y="343.8070749682561" width="5.923415823452126" height="22.68939185113494" as="geometry" />
        </mxCell>
        <mxCell id="y4_PNZh14Dq9iJrezV1P-3" value="" style="shape=stencil(rVjZbtwwDPyafSV0UtRz2v5HgGyaRdNskKTX35fqQq5Jx7Mo0LeNw7F4DEekD/nm9eH2+XhI4fXt5fzl+ON09/ZwyB8OKZ2eHo4vpzf9dcgfD/nm/vxy/Pxy/vZ0d/n7+XZYjl9fz9/HG35ecIFCGKAUfl0eSCaJf558utg/np6M/fjXyr41qozspVv7SLHt2ydK0dhzoVT37QtV63/l+eRd+0bd2pdGkvbtY6ZWDCDrAcAh9UiyAaRMBUScO2Wb0hipl31ArZRsTvUAUIIWKFuPlqK/ay+Buq1BpJKBvVCw9pUY2PdEvfmAM6hBZyq2aFHLiE4QahagLkV0Qp8ZX1KaYJVj2DROCVRB46hPbKMuMvPwPqBStWWrGjWocw/ElhfcKAMiSZmtuzSnclsAk9rUhkUtKgUEiDOLE9AjCQAw+6C1+A01w4YbChDAjaEPttSaaFQHBUjwgIRcalPhFkChBtinAA4egDq6asfVDaBDQBEPEKABCnAqpkFnlKVOofk6RFSHvslSmzqyC8ge0HEM3WVJdQG5pC3qAH2yaw+Q2AMEU8M10EpI9hC5bY7AdO0bn9D9owAftVzroLIBBMRvpmyFSSuH5Hic4OjKuOXYC77SFXaQcs2pgDYEBhT2AKT3Q6yjBxQUg0yxXgEYFU6mqqyCjiiG7u8sBcCgteWqr0O70qMuS6pt/xPAdcOlRBENfMFPS9IooTuLfcfpQIRmAUnzSluuUXUJqLFsRgHOkN49e7ZWJR+aZ+pM4jJsMBSmcWlaLuk4g7LUNw2UCxzsRwfboNOVcWYJcQFEYhR09PNP1DSAEwYRLPligNeoEsF1HMPlR7nHboSDxKjVT8YCI9YaOcnQwTgA6VZ/k6WqnpBBmTWDW14gIo0MWsmocd4vOwuZX+B0Fkc5mqq7lIDhFFB8jbU50cKXJwMWe4ELqLamfb9O1QXth9RtBXSExgvxduRGBdC9xVGI4QyTfFsKnp91N7WE0C5C+hv9jjG6Dgh8nB2yfj/wZ6Hj2n/A6OAXjJEfkP/gO0bz3wF/wszGyj7B97vleWxlgD///sHmmr3++Pt16P70+Hj5uLT+v/+apI8uX6Lyx98=);lineShape=1;strokeColor=default;" vertex="1" parent="1">
          <mxGeometry x="427.8400403679585" y="341.2159498328906" width="29.989402241095306" height="15.0064982796288" as="geometry" />
        </mxCell>
        <mxCell id="y4_PNZh14Dq9iJrezV1P-4" value="" style="shape=stencil(7VjLUhwxDPyavapsy88zIf9BFUvYCmGphbz+PppsvBn3zDThSFVuy6C2LanVkr3Tq+f7m6f9Lrjnl9Px8/774fblfqcfdiEcHu/3p8OL/drp9U6v7o6n/afT8evj7fnvp5vJcvr15fhtWuHHGReT5DChgvt5/tIk1d8fPp7tHw6PM3t1Ev1gX6UlYh+klsHeN3GRAJK0PABsh0AA0ff1OkBr33MdUCTUAZCcuLYNSFH86HP2FJCdpDGoxUtggNSDeAE0qSQNuUkbw1qzJOJ0USltzLP2JdYBURSIEaU6CvCwwyWVW0dCQBHHjuRFAVApINcexBmgeZqHCk5bOSgBBNGCgEailKqUMdPeGfsYIonPuMWfU64DvFSPAGUFYWFaxDUT9sXcNWKWuUL4bSrj4Ei5x2EdECVAXC9CtQ5QUYcFEUjmDBChRhsHRMmjD8VJJfy2KAGZTDYqcdrWA36bGDJqWAWh9KlktkPu5LwAAgVU31VlBmDSN8lQXgBIWJsVdURAJOQzIkDizOlIomRkhhrVSOndGsqG5i5VWwAQV7V6IBVnR4KOoq0TfstpNzodrccQJWvGzTGs1ieVOG2JgxI1QGEA3/M6A2Sm91niAuAYW0NP08xpWg9OPCTOhIzJt0Ud6oG3IAPU0Qcr0cSOFDCsRj7a5C7rzeqhkfnHZKstKi4QqaxxIQJeGqvp1hv/fAdWQDYKQMUpzbS1jxQxSsyHqS0nzEMmYZ112VmqAztTxQoyMrEm92ZAqTgA2TgRGSDjDtNcybhhujXS1diirEYTltzURtkO/8fEfxwTKwLe4ZgIuvEOx8SIgm90ZZ16mivHkquF3sysRTUAGB/ZDdnaItz9Ah0T7YYOKmD0Yj4E68uj05Z7lgdvar1ovIlxCV2YXhEIWV0fOmePApGsv9BuzyeHhAoQ+4etNwc32r9Saw5HUC+ehUexvfk+Cq3bZ1EFeyaRphZ5XN8mJ/4+gTM3ffSxewuIfOxT/pY9vH+kzsCt80DNZFrFqS2uYvQ8qaB9pbOwaakb+dn6+L1uH7BeWi+IzQs3yFZP4JYuvumR7nV7+/H3RfDu8PBwflCc/x9fEO3T+fVRr38B);lineShape=1;strokeColor=default;" vertex="1" parent="1">
          <mxGeometry x="458.5748976848969" y="353.3275753196506" width="3.9501888250966926" height="12.430229547772223" as="geometry" />
        </mxCell>
        <mxCell id="y4_PNZh14Dq9iJrezV1P-5" value="" style="shape=stencil(rVjbbtswDP2avBISqetz1/1HgaZrsK4p0naXvx+9QJ5J26cYsDfH0ZEo8pA89EFuXh/vXo4HDq9vl/PX44/T/dvjQT4dmE/Pj8fL6U2fDnJ7kJuH8+X45XJ+f76//n65m1ZOT9/O36cdfl5x3EnihOLw6/pGKsXw583nK+Dp9LwERCqyAsR9QCzE1QBSoSYAkKkEA8hMHQHKMGAGdEoJABoVCyiZKrgDC3EygBqp532ABArdAipVYJJ0CvbSjamBE1KjlC2gUGn7gKxhKhbQ4B1qoN4soI9QbgJaoOzukIfftgHJx6HqCQWYpE60JpU+6LgN4LHfItKI3nlm/4J8GbhV41BtPiTlL/BSEhLLpRSoAYBopF2KZhJEPqHKBsANJpAwBWuSJlyHByTr1UgZhE3tTXZ/ZQqyR8Nc3PrAwKWBYvPrUcx4bQ9K/5RI2N23IXuy57WMDbbXF29/poByP1O3JVUrKrI/r4oLrI8TRe3+nSqyJ/osi2F4YI/SrXlAR+WxUFoBCqLoKmSdGlrPVNi5CBUWUcbb8lsp4PWug2hpBBTV9dVTKCMHaca6nB8x3/OPK1sBUloD0H1KRnTf7ikUoD1KIVezwkcUrdb/kRLaP3uKMlXAB03JYAmXRs3bTWHrT5U9wD9qT7IpWUcA/8/64mWaXgAFIGs+uR7QR7PdBrRBmJmhbXBkE1Cq10TTpQBA5YFTjtqdGdShPjfSOQgMe3HXbm9NUj2RkJgNwZfSqoEGROrdt/smkBldm/tKdmUQuUnGuVKnXAUmqU6rrrw32G8msWsv3XE1Vbc7Jbhw3Dab2LtJbUK31oLRbIFUx2VUwcL4ewbMAnc71qpFXUtIUMNrS4rWr6pXGbXBob9n9jU4Ga1StOiJIG4rruY4hMPO+u6kbIJFdSbyYhRMYP+6Gh3nLro3azq5zwV2Ze6rqlcGdffarFgXTX0c9eV5KlsAYGNOgwILMY5mnEncO5OUiOgOxat3pbog2pXVQKFxwADXzNUNcJrNnkk6MqB2pYC4mnGgfhEvgaczEUBLkgMUONjJavydNBAA/PunlI8B+vD3y83D6enp+uFn+b//0qOvrl+J5PY3);lineShape=1;strokeColor=default;" vertex="1" parent="1">
          <mxGeometry x="473.4835315941633" y="351.2491696045729" width="8.958407630199064" height="12.233600977477147" as="geometry" />
        </mxCell>
        <mxCell id="y4_PNZh14Dq9iJrezV1P-6" value="" style="shape=stencil(lVlJchxHDHzNXBG1L2dZ/ociRJkM06SCorz83tkeV6srazpJ3YbDzqkCkAAS6Ev88O3+09e7S3DfXl+ef7/76+Hz6/0l/nIJ4eHp/u7l4RWfLvHjJX748vxy99vL8/enz9e/v37antw+/fH85/YLf19xwVnzGyq4f/7/Jlur/33z6xXw+PB0APhirs+AYkEBgsU2A6qFdA7o4+f255s1d/58tpSm52M058+fb+bm+8RmQTzvvbkyAZK30gQgWY8zIFtXLoLJMyA7qwIQopUwA7IVBahW8gQoTgLiwotSrAqjYzA/86JGa0UAPAOatyDiDBvaHIdWh6PPvBRno3uwLq7km9XZrb1YUtRIHIeOnxBXApfCTD7vnDnJ7ur4hBDOn0/m6UZJmpAsztnWmhVhAZhMUUN+i/v0Yd1OizzS6baHItOiVJ2eIMFCbZX/oIWj5IlWRUHaKsZ8pdQsqVyIw+U7AG5WuQCf0wneUhdRi6Og7EWsy4qROhsNgMsizoULAK4UhA3wek4LQJxQUDGocJeRf7cBqPTUGbplYTSYw4C9WdwG9MHlHeAtCi7VpTeAjspLKIphPsG70R/PrhSoAIxSfvv5Yp5uFIYXzsLQIpvgxI0ymDafgIzy4oSMMMwZChtUPwT38gwAM1Q6AMAdN0hm5MaFGykdRNkr3jK16ChFAMhaZnbjzCYCt1FpDnTRbq3VMgH22N8WPmVc4ABQ7Ear8SQC0oj9GaBUBijt1rv5uR/Cb4p8ABTHABVpAFpjo1UDPTTkA6KLyOGIPocahadqq6mplyaLQF/qEgBddd3GSV26VOmbqmgMiCLleh09870n1NENjjYo9pUxiBy9pNhXOOUQB5WjAOSFG0pRAsCBK1KzAkByaaOrsqGydNgSQruVSt9bKbdrl/cm9SIdAFDlGwBqu7BBcqkvw8YuM08zbgncGxnHgL0pnV5pSVFVjTejCwPeciudsBfD08BVBsiq8bOAtmi+rSkJQEVbJnXvRrk9UzNuUfcqcFAnnagRJDXQZVnd16EzbwMSewnDt6JGDhxpqHGnrgShO3spQoaqGWtv/IeVSVY2ZJYCvg8JdealOhdjqESn9E9gQJZVpizV3g/FdaZ+SFTqsRhTJD3vZZRrY6am0SxuP995DO06EyqTAiraawNom7FZoCaHxMRGCNR8VcMYg987LvWxHTls0pSTtuZHY6uzKlp6WTYySbdDzBpEo1T1rFHGVLsDyjjzbDCONDokeSX8uwUGqK0SfML7Q1xJUCPmxWi9VYputNc9OYNcUKxbJRTJrADgJqmMKOu2L9xwq144+mh5ditSVk3S2yptvlKDjhFleFfMe0ZHWTJQERuVgCBXoH4ZW7vTC0rHUqy14efbgMS7a9isakAoPOfWfYA6XRTPXt32daJw4wQqGgi0F2GADbQn2tShOsHxcqw4qawQB1osZa3SQSUyOnvZ3SovTVGViqh7kZcHUAxqVnLMvNjk/mOZWFG4VS9ZttBIDiU919aTpL0oJtR5vBRtCECaHQSTFK99Hn3mIHhkIiDVZhO2Zb9KhHWz1/SW2PPuAwBldAjLKrBLWQhAaewlJdrWTXd4870SXQlWZWVDHDV6B+zq+Azgl+Wh2kHh9/rM7e0VhwYw+XRfAGAVVlFHmt44/uinZ+T7uZes7wDgw493ul8eHh+vr4SP/+d3wPjq+v44fvwX);lineShape=1;strokeColor=default;" vertex="1" parent="1">
          <mxGeometry x="484.0005752314953" y="347.0076203482895" width="23.41218854752646" height="17.262278975273418" as="geometry" />
        </mxCell>
        <mxCell id="y4_PNZh14Dq9iJrezV1P-7" value="" style="shape=stencil(jVbLctswDPwaXXcIgATJc5r+R2bi1J66dsZx+vj7QlWVGrSN6Y2idkUtsAA4ycPb9ul1M3F6O5+OXzc/ds/n7SSfJubdYbs57c62muRxkoeX42nz5XR8Pzwvz69PM3JefTt+n7/wc+EpI/HM4vRr2WGo/tn4vOD3u8MFvibk7vAJKQX4DuYBX8t9fKuQ5PAZje/ju6BVhydC7QGhgdULTujBCZQ+FK4MIXANj+jkNVAouheQP6HQ+pe3o2QnNE9oaBQQCOQJKtAob4zi86b2k/k+wb43iLadSENRcB41UERIEPEE2wnykHV1wkcezHxBlHIZwyoJFJgpNyQvmnpopmLVVTzB3BeJ7siDl8KoakUZ67MEkqtC8oCnQEDLqB4voOD7ndC9tfvqxNv4iuRTQBU1MGrvqN4VbIQgQkYYIiQNErUYHXNmaQ/rn66crSgBoV3XDkOiLimry/6XkEajVmucAcFedx9WO7MFiVNF8qItDC0QXa6q03IfaZjL2Yu+aM03GaLIXoQlP5purON0s+RHLcbMWQZ7J3A0fsYOY525BRIyxE+rSpAgDdZN/Di0BqJBUK9mW66ht2kcC5JXRX/xtvh32XjZ7ffLXeXy/Xg5sa3lYiOPvwE=);lineShape=1;strokeColor=default;" vertex="1" parent="1">
          <mxGeometry x="464.7154904456751" y="350.8402253788079" width="2.191339894375401" height="1.8161235260908546" as="geometry" />
        </mxCell>
        <mxCell id="y4_PNZh14Dq9iJrezV1P-8" value="" style="shape=stencil(7ZzJjhzHEYafZq6F3JezLL2HAFHmQBQpUJRsvb0iPaierj+qv9YcDNFG34bNiKrKjO2PJfMpf/Pr++9/efeUwq9fPn/66d2/nn/48v4p/+MppeeP7999fv5ifz3lb5/yNz9++vzun58//fbxh5d///L9olx//fzp9/WEf7/wxbSlsrhS+OPll1K2Of/zy3cvDB+eP14zhG2kI0PaQrnNMLc8DvR5bmXcpu/bPD4/9y0BfduqPL9uNd+mr1vpR/qyJVhw2Vo+0uetA33e5tDnM/0ojj4RfQ9KXyPR6/6ULXaiL8OtF7+nRKWPIK+8Zdn/tLXwFvqICmrfE5S+4PNVH0zDcX+qoy+4/20qfWioD0d9MwsaYF9O34y+w/eXbQy3P/A9bWtV5RtAvuYgojCULVdgqFtuytBgxbbkJFuatkkiMw172x6lrR/XYG6jgdLVywdcGOIWYQ0tqhnHvkVQo2Z+9KgX0TQX7LLX3UwuDCYZEPSI6in6bnrn9G0LR8uvWwBDG3NL4kl3TTkPHHHLx+fbnsH3TwtlTegDbJDRl6PnDRzI0lar0sN6jb41pYf9NPrehT7R/qRt6PMrr3dmoR9gyIt+yH5mWm/et+NKXvT9jt4ECBYwvY3tG3yTXiITOt61n6qfFDiWvCRy767ypj7o8wc9P2zzqG8WuMm+DCcd99OAEPgss/d0RFoD/XTP6tgNPNIGtaxQ0XxcJmhmDEeJpYsMz/20C97m2AksWuxKEpzaljnWiFEWlrJFsyZSCLurv4GPZVdr2yaoadHnN8bfUYXQ6v7LKb05kaNXaQOjcdjRwxV9ByEHjfaLHmQc1KsbPal12NHtFX0GlQi7UV3RB3x+OFp963fWK1GysREE9YqtoQ2EPchd0VfQtwv6vKIn4GH74/SHsFNQL2T0lJ8EBXNGT/vjvJZ9P7ktw8fFPR++ZyhsMvsqbPDygtr3wHzLpUhcNfRIGmrwNR+3tLQ9NJy7CGfDJeInlbGrzFXSTVixmg/xWQF8km2igDlzfGTGZiXtKGfLRCbodY+7m7rC7JSo9LJ7/gtD3msPtxC1pHILwcIajKG/lWE4BsJcHuSv/BS0uzc1/zsoxBjE/hcMIZjQds25YqigS4uhK8MkwTUNmauow4vWNdR7iw7yhsaLri4Lb1sBL7Yk7RgaM3THQHUZg2td5NAx8FuGOcQJBKzkLHwnpZCLsz33Gk0tLg+sjZWuKUvhYl22LPkoaUNfEbY1R/WtteInmW4KIGwB05DXLO7CUNDdR1cBbez5jMFDNsrsjKFUZSDBLdxeHAN/UnIMlAyu6odjIBhjDMHhPKprLgbZ1r6b1DlDc0igcyHLM9wVnGLDtic0NxkceKOawtrWowEt9Eboqjt4VbE8uFTDMVDIWgBOAGLBjMoQmdSNVvGM8NLQXaqMl8xHiLuvXNO1DwhHZ1zYpg2ciBzMU1Exok9FArkgDLXsP7g6MzmyVc6S+DD2MHnO0FTSFoEo2Z5DC4oWdrHCM7ciaKbsNbpbDJIM32foURkqFW1cUFwBgKpITnALhjLD9GiG16CYryK6j8HllCY5yoFOXtHurVoX0RE7rG0ayvBGQfQ9B7kpamEY9wRRpzJQEjSrllZem523KnoCNgx+UMl2JPWV5gUGId2kSNecIVWTDLxMV9+iQF2mltzsFwpB9gGS+RnCCrCG5e8FCsS9ZnSu3041VmSHN6zOydEbG1hGwW3puObe99rvuRj2LO9SWQ1YQ3O+e3DN0AGN9XzKvncYckVPWWJTxR4BYXfTVKNP7NE29cJGT/vTNPE2emqNePqBvsJ/z0Ac1rQ9aPTYvNP9NP0hM3byMvqKMxCiD0aP2ad2jpY+E7L1rUFOoONwFhMRd772Gq/L1JTp9a2JW2EdslxSlKLmrYGQa9fKc+EGiX2xNmx4VKS72YwSUI+WWQmM7Dg8MYpWDXLDCtQYDkYyuBjTFQHajuJuMUzHQAM701WsjQEbf0FzSWPATmfYYel1+fMOQ1UG7L2GHSlfMVBV/4RhMGRzfZJVW+H2YhKowCnJ9IMdE+PyDJqi58naOt3s1ES/NHyWNNEvDVdmKG3fhnOGqONZNXEJtyh6Mb9EhYzmxl8MvVBwq037yPZOKqWb2xJ8ZKsiuFPS7ucuDB1N1JRZmoAzoeAMxopqWHZJgjOg3I/aulIOENxC1jr+wvMar3NQ16+gya6o27TyUVp1VBs1hkSzYK5WYjk1Nd+MQZDnvFRPbr5B9pWx82KYykDqunZJGLihuSQXlQEnEF3nZzac1lrK5LWPZuyiZqu2aOoHrBnFpgyE4HLSFH1yG/qUgRoI65Octt4pjUtkXxkya2t36k2w+0RwnDcs1QiOgT9Jpo8nR5Sl3o4Bx0e9AXEt/dREcYA0KjoxXSI4c+Jm+m6Df9WRdUzRl6t0BkT1obczuLHomXfAfysECSQzcECQzIKc9CkNLCcaCh0u7rKJ1qaLtiSI3mBQQFSjZXSVFvhlGMXeSTZtgV+ypsIduNF0KM72jVzlOJv3z4Sw/m8TCJr1fCQQ/6MJxKXQc8VAkjanolOlnA8MNzBWAjuBSxnjquxAk+HNzYAUnj2vrjhTIwKs0nWQ0x4ROIGQWVrzfMSwugVS8508NjYUhvaKyDjGk6IjIYFH0fdR9P2ai75TrX6VDcgA3Kx051maOPWoUONubHLOtHKLziKSjrjfcUQOjRSef2hBMz3zvtjZT7ufuiqYUiNz+BZdxLKyBxfrjCR19qs601TvdW8fffdH3/2vCuJv77sPBTzGQBmD5ZpyRjVxJcMf3bpziHS44P9a4Tx3G07SCwIBaFupo0vE6ORKc3WG1QGjme6gCXHNXEYbymDekyBVcqMAlvHSLq1ZMXfYgia5HqOQO8NjFPJkW7+yUUhjkIrSnXrPOrwj2xoRkvnbCywRu1NslGH8mrAwsdJfAUyNz5p0DSglYl+mNldcqejuW1aknjkTs9RRz4c3jHEr5RaEVVBbH0dH9l16HB05kcPXdnSk6Hxc6tglfx3uuUJklDW1ru3cfDk3eM6Q3DUjCQN7rdqBWyd9+QycHDizzI9s2v67udySTDS7Cwdq4FH5ospXOZGLzSGBiDWcqQl4q3cOHytwGPtE0in94zDx4zCx7I9DSH/vYWLVz8tVMTf0X4rIdXA3TJ2QpVQ0OByret7S8djHunPCeS08TJxd+YlP7paszWGLgHTbTnU3VMXJhcysxaGYOYpnjbET29Uj6poLzg6tbF6CPt68MYNiL660P26eedw8o/v5Vd08k9ydZSyv6IAN6vOaEZCwx2fbmsIUbmWvKQfRH26tLdAuw4KcC1nGKH468vyi4TAtowa+pjArlFu5PN2F45RoHVuhQSR3yVnmvvFKKN1YBEXvk5vdGP5F3/BnfNZUDHfm4R+XMz4uZzzS/9cvZ3T3U/HljIK/14lCAmeqn4ueJjk00OeAka+58Rjutw431pQxf5g6Q7Cap1SIdtPHuWMCGpO+oTA2i+mkAUzXZkQHVkpE9BQdei2R3WjWrPJO6+eUAZsaLtgY6idEtxhkSKmg4axdSsqA0wfJlYkLHggzBh2Dqnie3RhqVobEDH6YgLzp2y9Xvs9gf7ze5fzj84cPL1dBX/+/3v1sP73cG52//RM=);lineShape=1;strokeColor=default;" vertex="1" parent="1">
          <mxGeometry x="422.39318523705583" y="343.7629021172313" width="91.71558101706674" height="22.42593556296739" as="geometry" />
        </mxCell>
        <mxCell id="y4_PNZh14Dq9iJrezV1P-9" value="" style="shape=stencil(7ZnLUhsxEEW/xtsuvR9rQv6DKkxwhWDKQB5/n544Autq5g7esfDOmGONuvv2Q5qNv3q+v3nabpx5fjnsv29/7W5f7jf+y8a53eP99rB70U8bf73xV3f7w/bbYf/6eHv8++lmIqdPP/Y/pxV+H39nJeXpR878OX5Rq1Tz75uvR/5h99jxJg18XuaNRNfx1hgx5AFGgjnvAa4gXyhvB4OzY7ypyEfOe+Rdpfxg7/8VPsgXyemc/RSJ1P9obxFH10d/liaRD8YrS7Xn6CFLof4HwSmfif9V0LD/JJHs30uIPe/bDmf5LLa3t5S2wvx+HDq0ODHEQVb11Xso646IglyS0udwCpICMTmK7TURo0SypRDQhpDEEKOjk9RvyedWmGZ/kIwU2//gTYjzP1Cv97rQSCbipRzF9U+wmghEeMVI7SNtPVVqiZJ7L1lNDuKlopWqz+Usnki1OqmhjxtVUo2obd8CP89ncWBAU9Y8rzHoeUNLu1ZCG4D3nA8eeKa6qZIPPEll5RPuh/pT4zXwzD/auXA/TNPvrfrEP0RwE5+AZ61g4ivwmc0GZmhOhtb26QGQMmJJTk58BN5zvlTgVwyGqmJpYZwCjHxmfEaHat1jCZawBvmW0fO8FpzeP1EKs9djQYk8gbVkWuSZ/7URQeNoDlvkDfCRr+/RXjZrTTzay2atcf3QSvbi/i3wkccrGuBpQVf/O+DZbDbFNyDP7YXJIKz5s0Kfp5NHDa0ev/OsB098Bb4UylvUj2X+D3iaieJX7EU9J67nMuif6wcmgtgSelEPQ75zPqL+2dmhemyoai+vJ37wJ4vXTD5a1sCURz2v1CuP+lmJVxj0zPcTC/CO23seH3GAc7zf5XaUPem/fOC4DEyXgekTD0wVBwLLB6DS/H2SMExAGRuwb4fppYRMWCBWGjwchBPdTxniVejlVEmoH2tphS52ONXGdkGxdAyGM6HVIsAP2qmXqPqokicki03eW3q7EB1mpa9iiJdCwDE0ZHpn4+PQJxMdPPQg7vrCmzQyRBjqxASXNryVWYejd3kbrhfuneBGpfLa67GyqNYtvQjOwz0km50uF8GXi+DPfhGchv2Q9cc3J2+n+6WEKYN/6Ppl4HlCYgIXethzeBabrufI+g7PVsqzYdq1yeSEZ5cFI1+pfsb9VDpMj/ZWWkBHf9ZWUj8Yr7qiN9QDr1fnv6lb4/XD+2vBu93Dw/Gt4un/8TWifnV8Bemv/wI=);lineShape=1;strokeColor=default;" vertex="1" parent="1">
          <mxGeometry x="441.5139076147781" y="58.28068755237257" width="109.46576086626229" height="52.03310824014975" as="geometry" />
        </mxCell>
        <mxCell id="y4_PNZh14Dq9iJrezV1P-10" value="" style="shape=stencil(7VnJbtwwDP2auRLaRZ3T9D8CZNIMmmaCJN3+vhSmckzKfkWBopf25hmTkrg9PsqHePVyf/N0PAT38vp8/nj8erp9vT/Ed4cQTo/3x+fTqzwd4vUhXt2dn48fns+fH28vv59uumR/+nT+0lf4dtHz5HJXCu775Y8Wxj/vL/IPp8eVvCPnlDxXahXKFyVfK8WwL+8p6vWrowzOEymxki+BKjhPsevnRNnvyzfK+vypkAPr+0AtKYWIHeRlvaAVxOIEFJiqNrk7Abiox1jv4Cv5CBQiFb2DxAzJJwpeO4kcli9NW0AMYhDysG8xgCrwkATZyDviBuQrFW/kf2bJtjyP5d7kHZCXgAZn5UENRE+p2vOgGghUgpFvDOQj5Wb8ySBFYxol+xavVqB8NUVDHvhf5JspSsrIn7K+Pk8hRvJhLLfYm3GCNmo6IWQHhzKUrUdlTwRzknJeuyg28ijnxCXRApEHQZMiZu2kHMkjmBDg1zbkhsvMTdibR2FvI5fUma7LmjHUSaD1kThSRAphJNqiIGgJAidg2qYdkNFSy0mnBi/ot61QJhsE/kDyJQmcjjRnWP7Zj/UWhTIOua3QJqMrjEOR3GTr1gIQoCVi3QW5jQrZVii2REUBYVKrA+IW4uKoIIU2et6i4Afs7CmYAmrSZ0HgvJvIUcvkEbloNnLihwpC3Xi8XhQYQqu4KWmckT0DclO2WNz9AJqJhDoEq4AIjxDMMu0AKZifdmDICSUTDB8RNwQQask1Q3jEDQUcqSvoCpLcaADv+5F0QYgbEKfqRpvAuVG1u26dFByu0WCKug0esZsaxSpUpCCoEuyREJL19DZu9ZDa9gKaxhdU1Fs1miD29fQ3yVRGPu4pmD4qfkAtpUOZQQGG/EoOkEwy4U4tJpqRYeWHP6RReODKGmlQF2Lb5xru1dmN3r9ScACaUph2qDCdpFfbHlExU5/G2w7g4EjCNyJbBZR+bDmWVCHiutPoIBWEZj1nS7SzE8SlB8wtFI4haBTbsGrAqDSm9/U8jwict3wslzGBbytEGzLJq4xClmyTFoZWgQl9otcxk7xidCTJSo1JEQ+I/QpARyFgaiJpkXXpiN8aGmi2Rno0C/yFkV4b8H+k/6dH+mRJZB0XdXv+NPd+UtYoQSXAUVd9h0qccaw9FHDvEI8YJiJGBWCDhNTwr+QH/dmDCdZJlzDT9sstxxK1iif6OKBzdQWA4iCwY3BC+gFE3+mSoS4tcaeBFDN5Znz/KoE2/M7Bmxg/3QB0rg7nwvF6zf1xD5yGi4QY5xgyV5QWzRY8nSfDnlyncQoHuUwEOA+LtnkatTzJwzt/nuQTah62Mvv1BEihMFrdSt6hKhjRWcULca7f/ebya3l5ePvAc3d6eLh8H1q/tx+E5K/Lx6R4/QM=);lineShape=1;strokeColor=default;" vertex="1" parent="1">
          <mxGeometry x="441.45747555371645" y="98.79747521517004" width="12.610031830606236" height="12.58233774899475" as="geometry" />
        </mxCell>
        <mxCell id="y4_PNZh14Dq9iJrezV1P-11" value="" style="shape=stencil(7VlHUhxBEHzNXivamzOS/qEIgdgQAgIh93tlazWwnTOTBCdduK2pmi6TWabnEC++XX+8vzwE9+3x4e7L5c/jp8frQ3x3COF4e335cHzEp0N8f4gXV3cPl58f7r7ffjp9v/84JMenr3c/xhN+nfScOTeUgvt9+iEk8/3vLx9O8jfH20k+xkneVytpX96b95N8t+T3xaO5WTxaCUq8lNl6y0I8Wamz8Zbzvni23idxZ7Xti1fLkcRD2RfvFjyJ/0vFdiCddX68i0IeoWDro0pUMsfyXcTSZ4uZglmVPcUiIe0l+TYnK1oTyQIO3RyfrONTrM7+liUh2/LdOoEH2Bb5RfzKfMCgirAIASTww4UsTForxCTZFVYYStFqlQotzUGN5gUqhkKboxokrEeBmBUqcC1YBgUica1LGLYVgoX5hBZ0WFdVpXV5AqhARbQ1K4rLeN58Qu1LZrZNQlGeT6hBsjNGdhp5qKKuJ9CfMu2lSTlxphMURIEpmX2AkVkQqOJ5xIe25H5ToQH9M7xBoCQUOkrKnAcQSKG156Wknzmt+ACFMjudUPdFlKBAZTJXayJxPVmfTUKgiyiUUKhzWIGlpnxA2ySK9iXQ2wrd8kxRPCIIH7xbjSHPgds7opFCkeiDAp/QZPnulesMHuF15igRUFDFFUFx1EGdngF6WCw4P0KBw1kKKycUhRCmymEKwiRUupBXiRAmQYH6dNd4hQKxGoFTkwx8YKfj0mT2otTmTo1AR1Hw8Te19u4XPO5SKLJCVZwrlh2bpNriQLNnBcnqzoVmVEOFpc7DAxInGdQXRp5BI2tS03IBEkoGPVH4DK1qSBwGrDhaVKZRLB0rdGUS2uzqhK5OwEyWWSGJxA14ryiq+uggUOGwqjHx9QqRwVefUrmnQJmuT+vKngJVY3S5pIpAZPCNPqoV2lw10KnVdjh8mJ1OQc4CFWmaTcIAlNRCGbhUxirnGcx4hXzIkkAZaKUoZWsi09gXaAAqZRkntgfRzGNiLQtDthU8V76Re7VBrDoQ8KsqHxYCmitHJ1bzvecO1PS4DgVeCMKyze4t9xylakEr8Ezmlol/TyHOmQZYvBrilv3ibPNTM1znLIyNQpUxi/PzMXpXQbfK8tjXVUMszE7f5N1Q5kIPEInwvF1UCaS9XVT9z4uqxPPBKBYqQJFnfpiodilkrM4RBWCT2u+e0H5+s6VO8Fx94HR+oeLSXQEKhpqXuduD704NUaurBV1OCpMA8lV4DJD2lbxgWdy4G5FXf7ySB32t4HkEhLwXqHa84AyUini6pfmcISLI57/2PcVL8vjw/FLk6nhzc3qncv4/v0TBT6cXMPH9Hw==);lineShape=1;strokeColor=default;" vertex="1" parent="1">
          <mxGeometry x="565.9533298050221" y="44.60791377858277" width="10.044490575575292" height="14.515447541905106" as="geometry" />
        </mxCell>
        <mxCell id="y4_PNZh14Dq9iJrezV1P-12" value="" style="shape=stencil(lVjLbttADPwaX4nd5T7PafsfAeI0RtM4cNLX33cMYVWTsgfNTbZ2tEtyhhxpp3dvT/ev+10Kb++n47f9r8PD+9NOP+1SOrw87U+Hd1zt9PNO7x6Pp/3X0/HHy8Py+/X+vPJ89f348/yE3wtOo2g8o1L4s/yTqoTlny8L4PnwcgFIWXKzgCK53AbEMZ83AZpldALA87oBlCCVAbpku0OtEhOJoUuygNboDjlKHgbQVVq4DSgqo2wAJEsVQVd/pNhuAxqOFCwgSswEUKXaHapKJ1nqYd5e67BW5joAz7M75DrZdR1QJKilRpNC0oojDbsD6FhJWkuTYbMEdqVKAMVXOmYpJEuodLaVjiqB7RAn+1dAnGm4BUiOSzxmSNpmtVImlSTJ1hl1JERCxN2qBxGxDBUZ2awPUgZZ3z2zgwRCigpSRLc+EdaB9knd+en6ItGeJ0kn+UTzcfkHzUk+sb47JU8O3lqfbT7HbDa3zu9afEyUEEhQcQCdKb4O2DAUKmNDBCVu2QOUaaBO1V7IsjMRZAnNx1DZkZKoE36UxnXsps6Yk/GmjK3MqgwmgzhVuHZTLhv1Qy3RXgpZRhtwoDRCKy3VrY+MFFCtf35gNMXt/oH1I0uz+YQPYFN/dN94zz6A+YqwNp61M6LGfAu1NYN1YTQ9B2F3qIkG0Yc3Ry1R69LTZPE6PdKUxnWfgIlq8zpQaN5fij3SqLRhg3nVtosxRInUMpqDE3PgM0GrrxxKE0mDgRid/0JplJGj+a7aOzUKw8sHZqayEObdtdBYT+oWfDsqg9qEDbczP3+cNLvwatQCT/WuamvUJmCIuak8+HtF9W4THZ6JEydKG+MVSUfVjXQwOAPhBF5s3GQGgMWgsEabKcW8CHLuY8jUYmvfAArtFwAM11axJ7EvaInRDf9O3YJu+zA3hLoxhBhtkcXQvCeHmugO1c9CDNtG2gUq7dQAdhWWJfWvOgCwt+APv5j/BwAX/74DPB6en5fPCJf3/XcD/LV8c9DPfwE=);lineShape=1;strokeColor=default;" vertex="1" parent="1">
          <mxGeometry x="581.933992283055" y="49.484342891661186" width="8.878728061617949" height="9.027160613516031" as="geometry" />
        </mxCell>
        <mxCell id="y4_PNZh14Dq9iJrezV1P-13" value="" style="shape=stencil(7VrLchw3DPyavbL4Bnl2nP9wleVIFUVyyXIefx8wWxwNG7M9UU45+Cav2bsE2Gg8yEv68O3+09e7S/TfXl+ef7374+Hz6/0l/XSJ8eHp/u7l4VX/uqSPl/Thy/PL3S8vz9+fPl///fXTWDn++u359/ENf15xUl1oAxX9X9dPggvpnw9+vq5/fHiC9XVZn1zI71lfnI/vWV9dP1m/7r+5xvcT02qvd7VTQAJAdJn/QgaPJtcrBTQAFNeFAMQVwV9IzEnNSVkBgRrd/CTBBHTXCStacLnDKURicouuriarDzxZn5wgi2og67OTvKzXD9j6Os17Y3Vn6xv6J7tMDqB15wPsv5AT1vVltVecJ5zr3nk8r0D2r+sLkDq4QgjRVRWAQXnGxS0AeDTIjOxjQJwntAHUCYQTPbm8RoFKV2K/kDH0Y3StEIBKlV8BiQZmr07WMNBz7uwXxACUieygVd1WYmikMbcG79GIpMHNjrog93J0npFVXI0ruVWgmELKTAEbuzM9uarRtdqg9GKCV4rLK5nUcZ4ERG5zA29pYXPcMUK5sxrRO9Ww1FxOuCcWcymbX6iUryk4ATfl+ckhQLkDsqpRyLK50llWG1SpIgNEPAiV2kBsCA1tUO33RGhUh9oKkE6DVPN9X3VD+RhY9kStVLZWYrP6fM1tEqnYR/SpBG4xyljtVGSMANQtYG98f15pV+ssH45p55Lg97PIKVN+dusbiQP9dfh+jRuyHw1lj/7JLJm7Bv5XvaPfDxKsfGD2tlnAbuvr3OGxADsP37/94o31aa11tBor5Hw7BoxWS8w/GjBpzf2q+JER1GPuV5UQxjjdMMh1oJTTEjwCIM2q+xYAfyFRaRyAhgCWmQdgpbWKbzjZUkEAKyJH31ERULmXUkQAa44UEMyWOglNPbgOAI1u5taAYjcAbEthFoF7ACOfymNHAAtnBQSTNVmzM+idESC0BjOJPFMF0y35VfKUfJRLNvP7WW38y3jQmKZGJ1eNarCsM/IyqEaYbjgGVMwLo21l1BBsAFRYPfNSw755KDczus86dp/KiVSODgRs0KMkAaTJM9vkwwqqPMNlAyQXyTlE0wqr0UyMNT/Him5lujSKwpVL0mg5H7dj2qihbGU2aMIEQHSV/8IBW8lJ2yJD44FF3OjTgN6dGy1zorATgcjKQjHammndFrcyai9kfEtWjNnYRgHZaGtm9NZCwah35ecAs7AB4NSAmO58tDK4FBCQ+EkHA2A5btDbtmF8SxZAI65OUdkBqMxUF00105iQVVQ+BbCJW6wo9wqgUik46B0ATm8sfxKnhqAuDaN5xDVBt7LhymGIspnVANiK7MQGE3GB24B1a6GVgAKSCVE2lhjKZ7Z0JsYmRE+4lKzMcBEI5hfiSYgmcw7c6HcCislx20z3Vp5uJgNRXcrT6xug0MGeAsCtY7TCziHPwnmXp2kW3QJyVwmwIlEB0MeNWQwDRLyNkc2qY4A346E0I+RWzYfjgExVY0ysALCNgW/VrThQ6rzxq9jSaPlDu92C8dB4TGuxDjVfa3SEG7ZssOvYaSn9owGfqvGjAf//N+Bm5NVPVMMMWXukg/GOl8TasLNjMEPHcetCh5rRNEDMRYLBM7p18v3byHynYaz3rmYoXmlKN2W98ArXXLprH82C3+Rz8XTYkOad/26oTCs9TJ210Rv3NL2x+/5G9l8wKiXwG2gX4bxOBqYBb+iFP0rQnINZjb/E0EQL4xulHHvqMYoFGCsXyjlLonFvzwDm2v0kq6WIg4mhE+wSsOCwvm9+OwaYpxudDybGvSTUwo3eleZmSttGG7GSZwu/ASpN5XWbUO3Ejs0ZxE6UtkumY3ZXlKNS6axkdIIrIAe6JfU6pHIlC7uiUJ8kc1PPFHuMIQAg/B4n48Xb25zsltFQv0Se+zWHQT0fE80i49XHenAqhKwcGe9KYEueNgDKHGhXtZxmW2rmekyLXSYzqhGgS+O2id3vCc4OO63/x+0Z5DZa4ym5zWMpFtCqihEmvvwxlnkXwwVjdI0N7WX3pQE7Kk0u7AWddpkwvQ2JXjhq7VHW4BxnzKoXM4dRFkX+CtADixp/95jxRiZU/ijGRLPawCY9Ynq2wN8ZSDZPPT09uAFAYrCL6LF+jf6Tt5tm/cnbULP+5O1pxsbi5G2rsdef2QtF1Ubcm0dcYT3Ta8nYoPKXW5JRiDx9uKVpFl4l8idPYm6GTtcX8/18P4L+p/YWzDYn/qz4suLkvCp24yd8+A9vqfl6/ePt4faXh8fH67vv/f/jQ2/96PpIPH38Gw==);lineShape=1;strokeColor=default;" vertex="1" parent="1">
          <mxGeometry x="552.4248099702127" y="47.11914046333686" width="58.85793038253942" height="53.553513298861105" as="geometry" />
        </mxCell>
        <mxCell id="y4_PNZh14Dq9iJrezV1P-14" value="" style="shape=stencil(lZjZUttAEEW/xq9dMz37M0n+gypMcIVgypDt73MV1whNS7qEN2N8NL33HR3CzcvD7fPxoO7l9XL+dvx1unt9OIRPB9XT08PxcnrFp0P4fAg39+fL8evl/OPp7vr38+30y+nT9/PP6Qm/r5xWyWGi1P25fpOTZP33zZcr8Hh6WgAhSjVAFB/2gaiiOgJOUiFAkdQGIEXJdR9IOMENQEyikQBRih8AeKXEBwCaB0CjNAY4CWkAfBNNNEopjkCkUQoqdfTB4xFuH4DFbvTBpx63TcBnKWMeNEj2BAiSxkwHhIH44J3U0elQJZATmvjRoggbSVSbdRmJrKQwYFAc05ZVMotR6M3SgeJoN/gqxQCld+B22pJt0Bpp2qZSHoNaGy3uGG2Dtrllt4s72W4AEEmD5iJx9KFhBLC8ZXEjUJBKcgKANppUqtRMgCLNrU4gYW1IXLZAbARo1unqRJkPrVs8A16UnOCd6ybPBBLBnGh2eFf0LGu41ht4UX1syiBM2QBztewlojoLFGZSlposUBmQ+qheALT6kni1TjcGRDv4ANByxcqsNg+OtNwEGKd9L+A9IBqTMGz5CW1MHOq7svpGmqIF2JxB4rIBKj9hJQQANJbp2jtyaRLvUV3NmcaBkmxYmRBo8/MWLereAUziQs/9HpCMSbGvyb0o2RMSN6mKX7Uo24ofBnLtaZoXROlzZHcFGfXzNgz3BJZZvFOkmcDy9gjYxE5QZ1dK813Ubc9vtSIRqaaq0k6+AiHL9JV1GVKdzYDVOnkTyju/N0MJUiKSWe979y5kN5N70S5EfJNJK1T7fCjcyuKDRjHLqg/yvQwHo1dpgjXbTnN9/26XXLCK+52ahorKH3h+XCt6Ok9xsTI7IYsn+U2rNoagZuIW6jqMFYdLR2AACnIEkAJHUoDbbDA1hLZnAIpuXM0hUyWZg725xdCl4jbgJYwn4LbI9iDCGsc0pNK92ruumrqDkZ4UNgpDR5OKpzdoxCSbUYQdwqaps2q45O7Vdu+0PhoWALsQo3fNWwAAgUwLLbb74QMbj6h+XQGO9A8GdjJAoDsHgDMCRmkt6apakbjInI5WDE8XVuZ06u8t5lqq9A6tcxBnALuclDfCmsdMZ8wpdiUuduzlTAXMh19y/QeAD2/v1O5Pj4/XV3LL/9t3cPjq+v4ufP4L);lineShape=1;strokeColor=default;" vertex="1" parent="1">
          <mxGeometry x="571.7373114951797" y="86.89347357552958" width="13.82090577911859" height="11.652640508918752" as="geometry" />
        </mxCell>
        <mxCell id="y4_PNZh14Dq9iJrezV1P-15" value="" style="shape=stencil(lVrbblw3DPyafRV0oy7PafofAeLURl07cNzb35fCQvLRcM9s82bvalYSxSGHlC7p04/HL98fLtH/eH97/f3h76ev74+X9MslxqeXx4e3p3f965I+X9Knb69vD7+9vf758vX6//cvY+T464/Xv8Yv/HPFheiiDFT0/14/iX5+8usV8Pz0cgBU1/w2PjQX8vn45Frbx4vr5PeDizA+udrOx3vnYT2Brt+7uu+3OfFs+XlfTnG+nw9vztdteKbGCdlJ2K3vSj0fr9aRsu/WlUjGdydxG+9dK2S31WWB8YkYP2dXEowP4Xy86HI9jPfE+tKntQ/rIeNLcVJhfCfHVbNLCewfye+34Oq+HnXvRMZXV3Z7iqvk93vE9S+63R5fXN7PN+iGyYH1Ns9/AfIk6G0P9ZZg3UXic727Dj6dqNPZNY1dEwr36vxu1RRcJjTreYacBciU9eMc4JwrJXJXv4cZukuECeoZCSJFcJ7MoK4HkUgBiZi1FowVYwYSXGp02eMeWDQqzcWEVmqEbkUdYXeNpIsk3qf8B/9WQCKuIXm6/2FJLAJIRCuNTTOAnxHiYNZGrJSby/umNWpGctK5YpDMSnOypKyE3GfQRXpCUQ3DsltJP0ls08asH3Y7Ddy7e0uikbVoojSAwAAdhYguKRLGVXEpo5WY8zU/GbzOoVErteRkDwJ6cJ4FATEzJGpWBTTjfIEDIhBIoy1xDd0D6KNBUbbpgBJgxFaWc/u0yQJEqgjrovwh3FcGiFOELICqPpKmVQYAH3RJLBhXozNSpr6kmw4QZjQusYNbC1gnrbtiByeYgdT5OgOY6H2HQF3TBwB4uO9K+T2LagJg56B5uuxWKkvAngHa7t7KcpqnEyYUZXlmS9LEvu9hGJrxwYTK1meqv+0aDdWMqo9G9qA26buVulDnK0soLICmGDLDCL27lVSjsSw64hzsodOTzsvqH8KVlwIahsCZhtAkvpFW/jgAWKxMgkpXD5+pbwVAZldA5jP0jAAmBUbsNYBAQt+QqWJmIKRWQDWbzgyg5X5CQGXnYPSPBpJAfGMAOgKEMEgBaaecMojlXQV4A6CbrpjkFFA5APTPIDVhkJ50LgjozEqCVdOYgZ2DYBodVQ4JG5rSMM7EmTLOAKAd9OAas1KeQeIAYDXNWJLx1jtWigUBTGEpoBoAazmMgsRSlM1QsBgdAObe1YlhXOIE8iYuFc4HuwfWRrhJ0XwnCGQEsKpJAVBmDefjS/pJgKmP++p+neWsWBFQWeUnM8seALTc1SgEMxRqpeKNWYW6t5bsFTJ74mq9mNgaeE0TsUXWeDdHv5b94FqmfPhIUEv0qRJggDAr+qNKZMI14JKG5rqjEvclaT3L+KCbBitJo21utUkDQOINpoDOp9Ur0xqqQ6HzrsVoYTWNYImSOhWu1dQ0d2rLsvpPC5BojlP3xjYcTyijhbXzIXbaOqlGuMbK23CC9cDobrI+RZuUX4A2O6qnpaIpd1l305aKWu6ykx5tbKhehWag1rGx8aECzwDFdDeZwNLqFSrwvLTBbUAxBXWlbWk1a7D9It6nqKaF5RlAhTPMINT5RlCBCrxMfXM7oTRsOyigkIOTaMKM3OtugsCSTJc0rozASoFyOkfT82ozeJ4BQKxrImYHp3GumV4Lu08Y5a7plNMObUNVqZGP7UEspzOdQY8JbywiLY+lo5pJ/O6rRKRo4uVAEdQaCmA5TvnQbVeN9+0QUOYtyW1AnTr40Iard25dTCCLhA8aKoO5E2E3Fhr54F5HY6uwFpa9g0z0xlsVHhRNIz8wNSOol+7kOFWpFXIcz9ND1u6MC512pHRJsIcg9OZ1bBreESxxfSbhwJc6bWs0U7BXnrA89n74O4iasDGT6VV8KVj/JMpOTQ2wHt4NECOi4ywaz+I8tGYjbeWmitkz0otp9WEUk5T6MZprOGrPICjDhGrV4PFCt9Iu12rOr6qH5yhMszofe/lh7kxCouPNpX0QSsiQ8aVIWG8dzgBI+cpfHhiVOl4aEQYH0+BSgBBKKgCb0I2KnQGwbyGYlWR+fQBQLzK3B6FT8a+AAjTj3SQFhIYAlqCCCUSRd7lDwkg0AOykVy/1CCBS5Kcfrf0PgP7x8Ubu29Pz8/WJ3fF7fFOnH13f46XP/wE=);lineShape=1;strokeColor=default;" vertex="1" parent="1">
          <mxGeometry x="573.5040829286384" y="78.98550546288891" width="25.26012552045375" height="34.34641279293609" as="geometry" />
        </mxCell>
        <mxCell id="y4_PNZh14Dq9iJrezV1P-16" value="" style="shape=stencil(lVjZUhsxEPwav05Jo/uZkP+gChNcIZgCcv19WmVkVrPeJrwta3o1R0/PjHbh6uX+5mm/U/fy+nz8vv99uH2934UvO9XD4/3++fCKp1243oWru+Pz/tvz8efj7envp5v+n/3px/FX/8KfE06jBO0odX9Pb6IXf3rz9QR4ODwuAL5JLRMgNCkMkKSG+YQkIROAitYJkPL4xBag+QmQm/hCAFWamwClSY7bAERJZx9qkEJ8CF50DmvNw8jLAAQxzoAqOW0DYpOwAkRiUgKgWpPe3lwEIIg6R6mqJHJCKdJmp/FGyQk1Sk0zgJOvwoc5DzlKbNuAhu8ZLhXJDOAkzSYlN8hy2aQiZQbEIJk5rZLnKAXkgZxQkuTZaQV/SR5yWQF0VPkWNeLsgy/iSJSSl9pmQBAlFddLfjbJIzPEacTEiIBHHlg9eBtWdZRLIEI0USqSSOISor7KQyI+ZCdu9kHbiNsW4E1UztSAV0Q1srNCFoJEVtNulMsZkERZptso+QVbK8k0omSUL1RxRFsh7tlZACvRBNWoFlDYCcGqNwD+A3obQKFshUZUtWGlXHK27SJxhZnkRs9cUKMxeruhEWcA6oH1BxW3onch5ENYDZdQQIVFKQ0DFgAlNd37frWAyE44t8CFD55RY9V2tfGmiP7QbB7cByVqMq2j620Bsjkh8rC21Qm8sSNKxVRc4ZkuNnEooMTCmmxD6SXK6B1WyodU8pr+HAD11ea5FZmOpIDeqbbooox8GBLzbJJH4ohUarJcKtwF9BPTpkd9bLVEo934AHEgVitKnjYTZLnM9kfefILtVpXaX9QSGwFlM3H1djfpESIeY9rzZplxo31dBuRhwGL7YTLs3Tnmi4GSrT+t2TGjjwUkTLDJiF5xdNyD18GM3XXU69bIajeBRJmKzJluhUGc9cPsrUnwKhBJwvpj6h9xU7aRVZuHRWq2BMDNvaGhmRCbMDTHuV21QAne7OqAZSIRlVzt6lhbKyOflW2sV0ocWFE1K60GZwWvjwRMUm2z7WsBE3mrL31uIxmDPLhV+2elo2GQbAFgFoETeSUYbFPqEhctgE23fUUwAJQO6SL9e6sBgy2g+J430+25N24BzFUDpttA9KLffhhAHlTf8sE6XcfutAXwKx1m5Y+wmh0gumHkVuK8t4DGANk2n+g5l1btH4APBozP3dX9BwAP71eDd4eHh9PN4vJ3e5WIV6dryHD9Dw==);lineShape=1;strokeColor=default;" vertex="1" parent="1">
          <mxGeometry x="599.0977547384455" y="87.27973964083844" width="11.959905268278344" height="11.015946621735026" as="geometry" />
        </mxCell>
        <mxCell id="y4_PNZh14Dq9iJrezV1P-17" value="" style="shape=stencil(7VlJbttAEHyNro3Zl7Pj/MOA7ViIYxmys/0+xQhNc5piKQFyCeCbRE2pt+plmrt49fJw83y3C+7l9Xj4fPd9f/v6sIsfdiHsnx7ujvtXfNrF6128uj8c7z4dD1+fbk/fn2+mk9OnL4dv0z/8OOFikOQmVHA/T09Ckd5/P/l4AjzunxaAUKW1ERAkMkCSOgJ8lxQIwImvIyBLcNsAXyQZQBSfCAAapxGQ9MlZQJc6noeO7DxcmIfzEQoVdj6G4Xzy4ohPi5RRn9Ql1u3ziFkfzucqlXkUIRhZUbKURgBR9VVAxRNiMWJWR5MrWEFcCo+3MgBakhIJIEscedcaDVqE0XEAdKdxOQ9I0oIFBAbomimzSoiM3wakKH1UqXG3piZp9FIt4gmTcrDpXLhKuay41KSSOBRnjQZZGZcKcmVUCdmQGADlwY/pBmoQesNEoxIyyjEJSJfRrWAXq2GlaQGaAUkScSsAZeRSiJJZCehaExcAx+LQLVtRuGsmRcNZLk0AVmW8OnGpErEBAFPHACgMEMQH69ZMjAbAtAYELjMbgiqwoAb1UlhRo9IGOkkwKiGUF2wYi0B0tOPWJGF0a0SDIflQmzjTT5Jm+VlA85JHo5HTrPK1Yo3OkarUq3p90bIYvXtTIiwAiQSud1s1UMgik9C1Z86ATlMUgD4aXXhbPwOYybKp0pgPJWnx3DR69BKKJ/VSs5EuhY9KVWvEAsCqRsewtJLAhhMATOUDwBPydaR8s0Z7JiHrtDYDok6A5wFJupEQaNuFBGckOG0AW4C0Ip9nbs3WraC3YxLWKVolMAlVu/IyRZlbm4QVIPAUdc4CWG0FwLB18hILHDLO2ziw/uCdszpNoeZGNJNykfO766SwoCsb+uDXOvYsJAStM6t6DwDruwi1LRtFb3X/BtBWt8RpDCR0ratJF/xuDBCtBMy+tFE7O5IllD4+w5kLBOZQVmfex8r3sfI/Giu9NLPV8HQvA2qYNvp2AT4PwN1yJN+ljIt22MhJY791GTUpioHJkTjkrF5fLDYacWv2dreEKzuLA0w0pbJ7usxJzkYa1ZZtl6Y9hdnAvXWx87uTbtc5b6PpeUC0PQs60T7abFL3qLeWrQ2T2Qo0Pjw0XWMsFkx0sWGZMdUdZrJKXwz3nvw/5oqxxmSnCbhx3swZSB42qa9YgSAyfeYBdbGW7YQTSe9r83mvE+bWDtRcr5SFGytWy1F63Ge7kr3AaGfvAEEi0X5Nh0ILC2pnGunguYCYte7MgAsSshQDqLT349JvTEDSsRUrAGm1qS/MhqI/z05FznCVyurlQSJhA8BkDSpN5SrZ+SVzlbJuL5e7QJL3APhsAWxZgvKbTO+/ELjVpAoA22cC4OpKAvPS3771+QMAPry9ZLrfPz6e3lEtf7cvpfDo9EIrXv8C);lineShape=1;strokeColor=default;" vertex="1" parent="1">
          <mxGeometry x="612.3482028228482" y="90.28933028402139" width="18.49779704273402" height="9.491520005698248" as="geometry" />
        </mxCell>
        <mxCell id="y4_PNZh14Dq9iJrezV1P-18" value="" style="shape=stencil(lVbZctswDPwavWLAG3jO8R+ZiVNr6toZx+nx94WqkWNQo23yRssLEljsghzS3dv+6XU3RH67nE/fd7/G58t+SPdDjONxvzuPF1sN6WFIdy+n8+7b+fR+fJ5/vz5NyGn14/Rz2uH3HCeVcpqiIv+Zv6hQyP++PM4Bh/F4E1AjSXUBLVNt2wE5kPgTigXU7QCh5A+ISqLb+EJVe3zgbXyi2OErCag49AzZDilu47nfPwhpQnhmj88U4P7F76+UQbmB1MMLRcB+Ji6+Wgog+UqlOThTKttwpSgdnEFrQ1g6f+WGEsLnJdkFn6EUQqHm02+kgJxQqWafT6SCtLMOaJSAW9YZTQ1EKV3Fcg0oJKhm49T3wBxXAuxZl5HCA0wSK/8ijkxxniJrQoN+1C5/mycgf/NLh2fKgNG1HwvMxxTf4Rn63eaJr9cIA5ZJ/fZp4WtjGjYPZ2oCh+3KkKC3soj3c/CsxB33pibQq8ZU/fjJjQSJsxAHz6ZAOtWGfWd5xiesKGoJ6l+1vzBaw0NR+xEtgSJyAK80KjbV8RHZVy12SQITWNWdSjVSA7eS8are9taahlIqFHzn7ExGAalv9VQVuA30Kv0PZ/5H3rJMqpsj0Oz68vPpEwG2+HitvYyHw/zYu/2/f93Zp/llmB7+Ag==);lineShape=1;strokeColor=default;" vertex="1" parent="1">
          <mxGeometry x="627.5139872988907" y="79.86478075750233" width="5.032169231926247" height="2.821435185884127" as="geometry" />
        </mxCell>
        <mxCell id="y4_PNZh14Dq9iJrezV1P-19" value="" style="shape=stencil(lVpLch03DDyNtiyS4HftOPdwleVIFUdyycrv9mlGxdGw+V4/eydb05oB0QAaAO/sw/eHT9/u76L//vry/Pv934+fXx/u7Je7GB+fHu5fHl/x0519vLMPX55f7n97ef7z6fPbv799Gk+On/54/mv8hX/ecGYuhYGK/t+3/yneVf////z6Bvj6+HQCxO6SXwHBhSgA2eXCgF4FIDpvK8Cc5euA0FxOKyA7awKQXCcbqutdAIKL6ylVGG3XAdW19YtqclXYnOdfO57vLogPwoHU5flmrgdxpq619XmcmXjeXFm/p0f5fHZptbdn5wUpcD55fb64JJ4P3pXEgCocEHAexoCoSFRdWWnawZIijjS4UvmMmuJ1dnUlUfcuChsQarZ+UqvSBosuEi2SCyIQLM0POABgugKAqOsbapueufaGvIYaIqGI/GJhA4RJxsunVF2NK8C7oGIhcbrAG7I41hENWzSb+qQ0uXkAquZSZbbCD00ADMwhapjLKmGY8wQAvZWnCxeGlmWOTDj19ZQa/oSwIdmWlIpka0LWMLZBnVJGJaF4iDLN5DILzZneAjCKZV8BUZKvpFldT8VNxcN7ZZqAbLOgXk6tnvNSiq6IY8UX5xUwyKKKm7m6ehqET+oNSDOr0ci20obIMY0K7EWIvueIww+SrKXz86hg6vkyU/txRpoXYDIVOP09ebroMBjBI4rJAFT2gWkLKBZQLZoCVOdXp6XgTNncOHhS1zzyzq8pJmfXRCzAy52EXpBG1y3F4Nyq0iWZ4xlWSUDbEoCuoMhAeT0lcNFEBUWOo+oDz6iCiCxa82a0yEntyHGnnNSE0T2wfEMebOIN0F6UuQFICtA4HorO3L3PLHoyOii95z3zexBYhBxe0ak4hNlHXANEAmQpWnvdhEaXzRgkKrEPMqCoc/XsuSEpRQSBTLaJViX4IFwq6WiTnoM0otSK3kFVRKQNOlbwMQrHAZAj21BV2vBTrZ0ASScmEq0ABPVJUAk7QDgOgNIZENWxGresAGRlg3EEAaB6ypFcjf0gPW2bp4OUxUNokA1RlmkArDGgK90QeRIAtqr0DYAZA5TKBTXqDlDUCC5sAWQ6HsputI4HtiHOCLkGCLvjdACFzoCk/OC52xjkE2kGgLaxVdoQLiQy1X2/J/cfD9ELSUDT22cG3JAzaUsC9UYAbY6L6lg3wQRAVfFg89cnLimV+PMACNed3soP/QI1lNIdszPqXJscaaJmEjVGIyrojUPkRjTMidllwJa9ITSV4/qh/k9aQ3VMPbESAOHVKQ3AppeUH8YIkIRrkkURfmVFVqT8aX2b47Y5xbvmOFICVU+7x5CEAFGL7zhHGKdZkVcx3Sf7zwMyFaKb5sMnKS6NNJPY6BvNdEw/4wd0MHG1oUQ5yUEHQwVlTF50f0xbB/SWauRQjnn4qXtVjsMXtxVgJk9pmLj6YUxBhB/G2mN9A3p8NUbEG6g/7rLElcjsTnKuiXCkmaBeaoAFVH6OFuoaLajkei3st9bYbo2VSLHq8TgyYlp1T/B6DFWmjjrNrYoK5uLy+oaYdKeRWbDaDZtt7mEOH5s22s8R6RFqeniN2KRxIHhS1CgKn0QpD62E+KTctjmul/OGnDiptiyrYTpGKqeKrnr7lBhwo4Gzbd7QNbktXegpVbSZ58YBNihJDPazyKjSBnCTAUl2S2PlRbon6kVrZ7GHcqf2iKFxx1f1EmHsfknG6G4Jn5S2aqjeMJIiDbu0OtyXpyNxqmM9fn2aXalxGuoA7fnep7uXuRSYfGO6qxeDvLRvcoZoZdt4a9FtbXbB56yh3tB5vwRqqLyENxSiRpfjZatc0dEZqAJnmyQeGyxl9B5AWsaM5SZljTiXL9fIxy1iltoNAUQ1rjfZtYa0zVi6FN2du6vT6PVyup/EOb1APR95pdaL1D3+wlRJrUK3QTESsZoReU5Jg0YqD28ZqcqLBHlbUkZZGNo2rdeNW4h8FWLIb0WJwgqgRL1R99vG4VhoXytVtNOAiFAXasA6mq3kKg9pqP3GAHmzYYu0AVC3M7bZCgAqlsftjLTZICqPbTcbcEo37n9QegFADVhtuzk1xJy2gaI/97kMvppTGwOySvPbZQsAFL0BIMcVPUq3TX6O7dUNT2+X6tS6+Kdv4f0AAD+8X/r78vj169udwfPv+ZIg/uvtgqF9/A8=);lineShape=1;strokeColor=default;" vertex="1" parent="1">
          <mxGeometry x="631.7234746036072" y="74.46530716149516" width="23.136507783819553" height="25.445219929000444" as="geometry" />
        </mxCell>
        <mxCell id="y4_PNZh14Dq9iJrezV1P-20" value="" style="shape=stencil(7Z3J0lw3coWfhtuKi/li3Xa/hyJENRUtiwqK7eHtjTRdf1Wdc/8P5sJhL7jjgKyLIZHjycSH8pc/P/30x8cP+fjz65fPf//4b7/+/PXTh/JPH3L+9fdPH7/8+nX96UP55w/lL798/vLxb18+/+P3n7/9/Y+fYmT86V8+/2v8wr9/oxv9lkZQ5eM/vv1L7rfj+K9/+es3gt9+/f2ZoN1OIVj/UpGg1+/8Qk1KUAoSpKkEYwJBvU0hGLfSkOAsSjBPJBj5leC89YQEvb0SzFumRS+CQwlOJmjnC0E5bpXOod5n/EQw6aQXQX8lSLfKUxpNCc7O5yBryLdM29puR1OCOpj5DiUYtEuLmasSNPpCv9VsU8pIIMwXi6ZtHfc9eSI4aJfGrVU9h0FrGDaldGs0pfN2DCXI9IXzlk8lOGiXzluVNRy3QVf0vDVjbzy48y4jnggK3Ydx61kJKrH3uCW7op0IuoqZ3RV9k6RP21qINRZ72zkM5tbDuDXxF7IR4C51VShxRWlK6z4YwaQ7vbj1VT+Uwhdo3pn5mQAUyvl2TM8EsIaz3LIJsklfWNvaleAEgnnctfLztgIvzWpSI9910jXBvF/I55OmL8wLyVdpDfNCP2wIpgtjYL4gsG2tIGaCwKbUYJfScXUQDXjjHYrNsqcRgOwLgmEEYGIFgTMHXKEgsDV0WHWctZ1EBx0UBKYWO7FfuZXXLywjjm7EmcxyLXc1dknQmzJH6nf+uiSop9oz6UBboB639HoO/X6Sl+NLv7P/fXy7OwjX45fN98oY9f7B6/Hl1uU64AUNsSiW9/3GXo/PqtVZAIRlJN4JyuGwc15vTkKmW+PFv1p2D9ybMFqqjCfNEybIqwBbPwAMFE7ClPEkKdZ44YfjfineG590PBnoy486df4F9id8x6brhfNa7Jiz7Gei9WZdb0IptP5bNE66S5n3xg/9/RPuV4xPOh4kSky3fd944+fd+PJ946vtD/FPUjM+YXQhm8hNd4Z6b3yx9YI2jvE6f/KMrn6fVMbV/JGf012cPfEn3Zc13uQVn9fQ3288//PQ8Zv7Yr/P90UMtITWU4zX88LxJv8381nOjK0X5H+Mt99n+ZNs/nReWWNfCc2sNT7r/MkGuvx94v+s8n/Dn2u8ni/y/1BDdOzsGTWYBjq8td31/5PRd8AJt2q+30STo1nwpFaM3LXz7um9EQy8lBcESy3zF0RqtQPDM2sNEkxsCfV86xobbPkeEromaBcEk89BNFkrqIrXf4upuH6CZOOagPjgMUlaw6En3TgwvY6pyJRONEcXI0gspE10qavFc/qBCnzxZn/d1p4xGl/LPcD6RlDQJK1mci23iCJG9c3kfiPoaJQuJ0juQx+oFRaBaP1+4o0r5r32eVe87xG0V4JxYApiEYjgHok9ralBgZEwAFROXcPgWEgQZCVAYTw1CjzKfaPfI5BY+SKgaPw6uCMpAQVEF4H4Q6PeNfx73CoKKwjoThdN1CyCgwiaCoGxuUBDdfQiwCk5L2VMBbVkU0qs44qa/YP9upCkImY4/7U00HydUmdLYMk5CeouqUGuXTdTackl0nG9GgEf3JqATollazfToR8YBQ4pJAplospaxzREi55o0A8zuBsbJw8Z8awUiaDcPa4ngkRTqupDPrjrPQIJh7bGqdFm5k+7xxmuCUztLoLCBGqRNQx8LYKW9RzIbr0gOJFbR9dwaE/8BYturvuAzNc0mBVXlFPUoh8Ww2MqyNIog63KYf5nICZolw41f8bELGE3tXtyPngJAQkpng3NnxBbr/fhPPECrWMSPT0PPLglhQQqMNkSCB/olZdmQ1DIMs0lTjj7PVLxnsoSDTRPjGQvLSpG4px3ZnnPMpbQ3COt8q4pLbHgR+bmXYr8vRTtu78hcmC/DN3ZiWCYILCdJe6odq2DgI9CUBtBQE7KJQHvUrXD3vhNvgaKfF7uEoU+g2AaAS36VEt0VjTww2l/ndLZMVoUoknsxPMez7qWlqdq3hDgsIbTEEDrmwV4aYm6bL4fpoQPFa9LQpMlughy/l6CbgSUiFy282EElKU+FOYRBJTfPRTbsggK5fIPMwZONGiuv7BZdDWCzaKTEVBq/lCM0SIgsy8IbEqVktqHemZBwLuk6VomOIuFNipb01Xjm21iIK4n1bwtIyhpiRmBn1U2mcIHF4LK0ZZ+z+G9ETRU1YGVOXVKpOPKocCqyu5onsqtbZNIODURvnxmzBSdmhleHgGm3qaK+4fVdb3oZPHNicmHYqGNcEcpG95NCCRUu2XaBcrIGjVr1GsRTAomVk1ghfVL5s/QDFbPaP4sRpCUSGc8T4Shq+4SxplPVbudob3r90TyrZ8gW2MJFYl6hXfJoQ2NxjeMqy05p5FsRsSNQ/MujSPZwzyCynCe5RqKO1rfDKL3CMSrqRXtpYjTvS568S+ZPyOrO1o3gM9s+M2JkKS1reIOlIFTCstCCDqaDt0h1hVBTxGIky+wqAxmdjwcRx8VMc1p7JYM+3iguK/m8C7xTF+oRcGSmS2Bda6SMMsDT7o0g1Y1ThAc6tLkiuHK3DXJsUFv5aLc+sCnXBOsXZdFH7hL6dTIXZrIrWloRiGxS5PaPUPxRtBx0anqScdPAC8tgiQYnMoA0WKgoIK29+O/3wgyBk8Wgab90x1Y8R7BIQEgxEElwwGeGNL18QON1lQUJ9D5DCxExuHZq/FkT8Z40QyI61jnI7jkilb9Gi9x/oKR1pRNLWCKKRlOJqPtmUw5s8ROh+aAM6ZPp8kJ5OdTNX9Gbh5qdCb0LprGATNbnJoKyFhVVUyXIScY4KhiUD+pBd8Qz2pw1o7WuGmYE9F2h1oSidGghyrhxMVdycZXxA0UZZvUEW3aVCgkllLDBP/EWzhV2eUDITFrOwT3kDelB00D1Lmi57EmrEZHRzxW3Gvhfo7j566qaNktxKLrv71GkGy5Uq2IquGdKaeaBMumJkeiZjMvNzH5rhKoZrRS6qk45FrR3VoWr/BqbcirzTR8HXhwnuJZkySsZOsak6+TEV9Dg8fLZUTXfWrAr2X2Yg+NyTfWk+HZS5CmomHQjTXCsaYak6LB48b114tAkBWbBH23VMfaaAqLLgIJobQTNWBv6gE2VgyLQLF9E5Vmb5rMC7wIE5xGQCVU8QXJK3BFa/jJFgbCNVj99SKgEth10tWCZRjVSWoFBmCF0raX8TsiMFRC52jzul/dCDAxfKj1tSEIjOVpa9jkeY0gU3LRijxiowlId6rL2NnwWQpKyvHWyZDlU4rmqBoL40e19ZMQILW71LhkqgPhwtEEObhWsfQyStdEanCkNrvkS4imze6lsRv7MN2fdBxdoHANhKBjOO5RL/Okpyn7kpPiTwKxyCUN3WwNKnaObX0VAvXgooyuMZdAjm54SSyygZZAsZh86VgHVCwcF1dqU0iZlIDQg451LZydr1lD7GWDE+2aJlgEhANazKzFmlwmvO6XWJVR/E/CuCn2O9oLkOs81JEvCYHWzbCukeYitXsoDiN6KnCC1PtCkDDu5lZGZJX0tGGOC1f99mxdfRhx05NaM5lTf6FvrF8NFaqGJfC6hsyAgWaB1+X+IvNZpcKSIyexhtcKd56SsUZEzOkCnWpgLQKCJFTr2rD86Q22Stg7151rmewLBKCJCvKiBFgSfqqOywx4X6Jy2hqoXGlJUvGBYg0EGDBs1SLYmD9ihuaN9M5qwgVr0BpMseeOoZaQc7JLA/EwS0aIJZDZ1iiGuMlcyZa9ycPBxsm80A+EfLogKJijyt7Qg4HWxeBeix0p0v5oo/JGcKKHUrp6KJUdv3oYWqWww9HUlH7IkfdcGvFFw8khIXCaVXmi2q1mzdSJCLQ69YpWTsxV60xQGWhdp/rTQbCZ0qEEFNyM37M1UDayTsVhVA5TBIGFvDYECpXaTklqUvaLPvzgeFvVpdke3AUBJduvppRJi07NVtUN9vtqW0mQxX/7fdictJ3DhqDYfdhMycOnKDWuLhC5+NdXlJnvQghspmTbSnVmD958Zm/mpfK9Ny7bLu2uqE+Jdyn5lDb3wc+B78N3EpyK9Ih/YRSd8tLAWGUgPGVKnad0aDQ0IDWk2LsGyuumwtb8h8IVVGHNuK3B9pJm3RsjbkwD7e0lJcjoHseU3OajYI4ZiZm5tbiXdTK6N1nLhsGGbjKoVMc439oTkRrLuqeUSLEkfOR6yQeyPkXLQ8F4q3fJrRjniwCXrIFLo8OPcwIuvtZFF3Zes0I4Yw3s7aqHUrGda7UoXK4Y56sWlQ7HjxIWh7U3buiAN/cUNyCBqlHp3DG+FIF3QwLSjWtm6G5y7JG5MnAixb171iafmfsj9Gzbyhnw7sL4QFujZzXhyoGOX+RkLGxHgGOviiysUNY5eHdWrMu31FTZIMXbRfgUCzWzSo2yaf8xL7C3mF7zRqWFrUoPMheuOph2DpWb9pnHHmqXuyBqwoJL1Iu1/YogGOnp01qhDpTeEco0CAkhESKEJvbSsWs9pWkdxrEFlEfs1m2mSU3ptu3e59kyRhdpLyYulIt2la+sUbnoMhoQCiIkIS8t9SFIyLiDtK0WKF8agyzj4CWrzdhky7R7wWBbo2g+rnGhXFwXmdJk88cLR9+g4NdSI6kg6yxbo7zboAubXkyjKAFK7yskAq2hFc347Qi69WLi9vfNXMueWYsm68CQd70FxBKI3BMpdoO/dm5Z1w1V+cjQvUdQjIByWd1s786isltLn0AXccsGOYew0cjAshcqogiGzqEqa0QVGaO8BOsQKC+aUjGkWkcx099acTwRHJu8qEFIKIIVdW8ypcrsbfW4jTs6N5etGdVuJLRl0QkXHXti4SLCVDc76WgEsPFQRMcN7gZ4qOSrDeF51VKElTN+gTWVQDkDz6rVjEUekzSQtUAsA9dQrJC6bIyTqVj4TcPyRznWk8NBWvRRR/AcOaEqilMPLgIhhP43QZY3pUdZI4l503Rda5DzgYU1XbV02sSklbfTQPcka3196hgfS3rZEsdxDus3zY9ZWKv/bcmDcOmJy/UuDejXH1p1tKlqUoR3YafHAh/cy8+egUJl0BTGllCMDt1IbhxtyA/uez0Vu8IVRMk6i7KWSdbWmdvip6zh+YyR7WRHVdCYSEXPqqAhm+wphoqQwzVe0wtcPmdNS7fleTZ+U/5X9V5tygtFQW7LF2X8tjxS5s/NiVLRuFHi3m+p2DsGmTnCzMtUuDDX+lYljgWnZjWqHKldkl50V+ro60draVnDyVWYZi2mycVNjuk50B7NVsmbN5DmbpIisx102Mt1G3xYMxXP7RmLvfSSBzcILgqgydwvyZ9VeeTFrnVHMluO3wILoKs/vEXayUAPm8eSeta4UWHUULeWq4X7kD96ID9HObmXhD7HxHVvI6tYKoxhiP7B4khwB5phTmnlV66GFULUyjWa7j117j5qkakoziMCu3Ft2wVWI4SFy9i6eeKNy9i85SoX+z0KXJ7CD5iIOK3hGL9c4+WEnZ8SaUmzkZ2rg6uVE/bCLSbtvcvO0YRqtRmb5kRRJ5FtDZvAqwX8yLJ6JGeeg2VcGKRFlxMvUDaMW/R6JoTBab23Np2x7HHJxtCQbA8qRGEQY28dCUjBgQgFWIcybNblFb8NbY0QjNZlDbFVp9ay1s4lkVam0LhZ17BC6sfLFddOVbXOiZUfifvRzPG/CX40c7wg+P/WzPHUXhx9YLDsbOqh9MHv8E7rsM1NZqNZ6usXBjOfl+2cXLC4xIwY6/GwKPfu/dF3+Y3gR9/l/8Ea/o/7LltieHI56+MtpTeC7RtUAn6aDCyNrJPsUsVzWMa2OO0zM/gpq3cZPeTpC1W9/CUONy0mpST3bFgW0A2kfGaEYixHS3APg2tShvVHGJunKqyYaGyepjakUZ/bty2EoGOuOt62MCcFHd6mzuKmscXFYxjblye0edrgflw2pegtwGsQzywCNvxUhbhBAa2jRVd7xaRhAmF4y1XOPA3rPtU4XDmymd8Dpcbjxamng8MndKx8r01+EcctIPYue9e4WufuaN1eLV/sTfqhW+e7vhEzh6FDuH9Osw6qndvhBDNb13wMJtoTOo82r+9pIEEaDW7E6aU+Y9OoeeguBf+SrWGtAnZPexVF+a8rhdEWy1UPBtJV6263+UKZKmZCnjOBTqlgbLBYW/FRuG3saSqLm6QU06KDA9PFnp0Y/EbvIpBmBCF4Nl3CheDAKxqv75kWxTVMu3Gb+ldrTLt5dqJa8/XObZSrdXYO4Bvfh2TBRDIdajVnkTPqgfqx58nwvcthWnRTCnoa4GBg4rUdhqblaHyzkGtraC+1YiC0ygRVEZAhnmkNBroJRDApFKtka5uGpEO7SETT+s3re/5gLK3Bckf7J2mVYNP+Y1xgyrD9R7HShk1L7qp1BPlkTFnTJrWRIWYotyz65M5KP17r/vFa9+73uR3Z/+5r3Unt/8Tt0awRXuJETrLG5rvxTfdnN7583/iq/EC+xQOL8TSe72+1/eH9L7Zevo9F50/Yj6vfxzdsLua/4Z+q54v8mTQ0l/BF72wvSafvLEjagGkMI3xgGCIQv0PGo3we2lj4YPjQVMOAY9R5qiV+IAygWE6F36EpVgFzcGGeFSId/HxQUjs/YTFvFEOa/N/UhRtsk5s+aQ02t3Aq1o+bPSfHpPOj4tU6DWHkrhg4bONyeChk1y9NLN10cAVIV68p8RfOZE3iGKk6ixFwzGtO6xTJ/vEje/BMQG8ZTINVbQm0KRa/7B4E1qeLOhQ+MlFPBGTJPWXHnilgX9+h2Cx7GgElzqc+Tb15N2h6A7SMBt0j2/VMwNykvSK5aGSayC6bgotqJeEZnfZ5XCATSeqdXb38UlBsnEVz+dGolHAhVocQMCXY1mFNekrBHiNjGGsUbAg47E2QUlCUjW6LZi9/tKtXrmjRXvzP3eyDQA4u7VJBAk8uiXep2zkcaHGOrujKqImiXRq2rWwjLQLBZBfuBD9O62G7JVAhsJmSxTcDX0a8NLVnZ1hafB/0Th/oqa01aG0aR4zGaT0VEsZChgE+d8xnIO7C1tg6aQVAcxXNBS+xah/dCp64m/3wrg17IWB3miAbw1/f46faF4HalJz590xn2TxqWDVBsBNkVtG6aSMaeRxjjc0ashHgSVvxWdk8zFgvnqkhX8kJwjvjXdLWwJOVoqErMzdx821dDimm2Q06E526eEraBohzqcNQ37mzYjf2fjjh7xGIEMiNs+btokMUsne3Ilt+amd0e+eJmw8Pa3Czefpx9Is14AWyp+OjQo4tAf8CXqCrNaAg813ih3CCwKqjN8AW7ZjGiOnh7ck6A1tMP+wJlFu3U8p2gTaL1l7z223dEaw//PHT10/f/vLLr7/99ufXL5///vH5/3/5/OXj3758/sfvP7/905+ffvrj4/rbfwI=);lineShape=1;strokeColor=default;" vertex="1" parent="1">
          <mxGeometry x="539.6306425129756" y="-7.499218939547859" width="155.37548997138103" height="329.1351689516867" as="geometry" />
        </mxCell>
      </root>
    </mxGraphModel>
  </diagram>
</mxfile>
